<svg width="250" height="57" viewBox="0 0 250 57" fill="none" xmlns="http://www.w3.org/2000/svg">
<g clip-path="url(#clip0_2820_432)">
<path fill-rule="evenodd" clip-rule="evenodd" d="M77.1784 37.26V33.4H87.2789C88.8925 33.4 89.9649 33.25 90.4857 32.95C91.2619 32.5 91.6398 31.82 91.6398 30.91C91.6398 29.85 91.1904 29.08 90.2815 28.61C89.7708 28.33 88.9538 28.19 87.8304 28.19H83.7248C81.2329 28.19 79.4354 27.75 78.3325 26.86C77.6482 26.3 77.1171 25.6 76.729 24.75C76.341 23.91 76.1469 23 76.1469 22.03C76.1469 20.52 76.5963 19.13 77.5052 17.88C78.3835 16.67 79.8031 15.96 81.7435 15.74C82.4074 15.68 83.3878 15.64 84.6951 15.64H95.6534V19.5H85.7572C84.2763 19.52 83.2959 19.59 82.8057 19.69C81.815 19.93 81.3146 20.66 81.3146 21.9C81.3146 22.94 81.7333 23.63 82.5708 23.97C83.1223 24.23 84.0516 24.36 85.3487 24.36H88.8925C90.7002 24.36 92.0483 24.51 92.9368 24.81C94.4994 25.33 95.5819 26.24 96.1845 27.53C96.6441 28.57 96.879 29.68 96.879 30.87C96.879 32.19 96.5726 33.37 95.9496 34.4C95.0917 35.87 93.7947 36.76 92.0789 37.06C91.2415 37.19 89.9751 37.25 88.2696 37.25H77.1784V37.26ZM104.304 15.64V21.48H108.838C110.186 21.48 111.238 21.58 112.004 21.79C112.77 22 113.414 22.36 113.945 22.88C114.956 23.79 115.466 25.31 115.466 27.45V37.27H111.034V28.29C111.034 27.45 110.993 26.85 110.922 26.49C110.84 26.13 110.687 25.83 110.442 25.57C110.002 25.12 109.165 24.88 107.929 24.86H104.324V37.28H99.8918V15.64H104.324H104.304ZM119.276 21.48H123.708V37.27H119.276V21.48ZM119.276 19.85V15.64H123.708V19.85H119.276ZM127.752 21.48H135.504C137.005 21.48 138.139 21.57 138.915 21.76C139.691 21.94 140.427 22.31 141.131 22.85C143.051 24.32 144.011 26.58 144.011 29.63C144.011 31.94 143.307 33.81 141.897 35.24C141.192 35.95 140.375 36.47 139.466 36.8C138.547 37.12 137.434 37.29 136.106 37.29H132.195V43.02H127.763V26.93H132.195V33.92H134.912C136.352 33.92 137.393 33.62 138.057 33.01C138.986 32.21 139.446 30.98 139.446 29.31C139.446 27.88 139.078 26.79 138.353 26.02C137.628 25.25 136.576 24.87 135.208 24.87H127.763V21.5L127.752 21.48ZM146.932 37.26V33.4H157.033C158.646 33.4 159.719 33.25 160.239 32.95C161.016 32.5 161.393 31.82 161.393 30.91C161.393 29.85 160.944 29.08 160.035 28.61C159.525 28.33 158.707 28.19 157.584 28.19H153.479C150.987 28.19 149.189 27.75 148.086 26.86C147.402 26.3 146.871 25.6 146.483 24.75C146.095 23.91 145.901 23 145.901 22.03C145.901 20.52 146.35 19.13 147.259 17.88C148.137 16.67 149.557 15.96 151.497 15.74C152.161 15.68 153.141 15.64 154.449 15.64H165.407V19.5H155.511C154.03 19.52 153.05 19.59 152.559 19.69C151.569 19.93 151.068 20.66 151.068 21.9C151.068 22.94 151.487 23.63 152.324 23.97C152.876 24.23 153.805 24.36 155.102 24.36H158.646C160.454 24.36 161.802 24.51 162.69 24.81C164.253 25.33 165.336 26.24 165.938 27.53C166.398 28.57 166.633 29.68 166.633 30.87C166.633 32.19 166.326 33.37 165.703 34.4C164.845 35.87 163.548 36.76 161.833 37.06C160.995 37.19 159.729 37.25 158.023 37.25H146.932V37.26ZM180.747 27.67C180.747 27.56 180.747 27.46 180.747 27.35C180.706 26.42 180.481 25.78 180.073 25.43C179.623 25.04 178.725 24.85 177.377 24.85H169.891V21.48H177.377C178.725 21.48 179.654 21.51 180.154 21.56C180.665 21.61 181.186 21.72 181.707 21.87C184.158 22.78 185.312 24.95 185.179 28.39V37.27H175.845C174.17 37.27 173.005 37.22 172.372 37.12C171.729 37.02 171.167 36.82 170.687 36.52C169.38 35.66 168.736 34.35 168.736 32.6C168.736 31.54 168.992 30.6 169.513 29.76C170.034 28.93 170.718 28.36 171.586 28.06C172.331 27.8 173.588 27.67 175.324 27.67H178.806V31.04H174.895C174.384 31.04 173.986 31.17 173.69 31.43C173.394 31.69 173.24 32.05 173.24 32.5C173.24 33 173.424 33.35 173.782 33.57C174.149 33.79 174.772 33.89 175.651 33.89H180.747V31.04V27.67ZM195.984 32.34L200.488 21.48H205.186L198.231 37.27H193.462L187.038 21.48H191.869L195.974 32.34H195.984ZM207.239 21.48H211.671V37.27H207.239V21.48ZM207.239 19.85V15.64H211.671V19.85H207.239ZM215.726 21.48H224.264C225.54 21.48 226.521 21.57 227.195 21.76C227.869 21.94 228.482 22.27 229.033 22.75C230.156 23.77 230.718 25.37 230.718 27.55V37.28H226.286V27.07C226.286 26.29 226.112 25.73 225.755 25.38C225.397 25.03 224.815 24.86 223.998 24.86H220.158V37.28H215.726V21.49V21.48ZM250 21.48H241.717C240.502 21.48 239.501 21.58 238.725 21.79C237.939 22 237.193 22.35 236.488 22.84C234.528 24.2 233.537 26.37 233.537 29.36C233.537 31.98 234.344 34.03 235.957 35.52C236.642 36.15 237.408 36.6 238.255 36.87C239.103 37.14 240.185 37.28 241.483 37.28H245.557C245.557 38.19 245.404 38.79 245.108 39.08C244.812 39.37 244.179 39.52 243.208 39.52H233.935V42.89H243.811C245.18 42.89 246.221 42.78 246.936 42.55C247.651 42.32 248.264 41.91 248.774 41.3C249.173 40.82 249.479 40.24 249.683 39.55C249.898 38.86 250 38.07 250 37.18V21.49V21.48ZM245.557 24.85V33.9H242.116C240.788 33.9 239.777 33.52 239.083 32.75C238.388 31.98 238.041 30.86 238.041 29.39C238.041 26.36 239.317 24.85 241.881 24.85H245.557Z" fill="white"/>
<path fill-rule="evenodd" clip-rule="evenodd" d="M33.4571 0C20.497 0 9.54884 8.41 5.99477 19.96C4.94285 23.42 9.15054 24.3 10.0697 21.36C13.0314 11.46 22.3762 4.22 33.4469 4.22C42.3729 4.22 50.1857 8.93 54.424 15.95C44.8444 14.45 40.6673 10.98 36.6946 9.07C34.1311 7.84 32.5277 7.39 31.4554 8.67C30.7915 9.46 30.8732 10.48 31.0162 11.51C31.8332 17.24 26.4919 20.01 21.5285 19.34C20.017 19.13 18.5157 18.73 17.1778 18.38C16.4221 18.19 15.9319 18.13 15.9319 18.59C15.9319 19.29 16.4629 19.91 16.6978 20.51C18.1072 24.06 16.9429 26.28 14.8289 27.03C11.3361 28.28 5.24924 26.02 3.85008 22.76C1.61347 17.55 0.285797 23.21 0.0917532 25.78C-0.786551 37.22 5.27987 44.79 13.3174 48.02C18.4953 53.03 25.6136 56.13 33.4673 56.13C49.2972 56.13 62.1449 43.56 62.1449 28.05C62.1449 12.54 49.287 0 33.4571 0ZM24.7762 27.25C25.5626 27.25 26.1958 27.87 26.1958 28.64C26.1958 29.41 25.5626 30.03 24.7762 30.03C23.9898 30.03 23.3566 29.41 23.3566 28.64C23.3566 27.87 23.9898 27.25 24.7762 27.25ZM33.4571 51.93C29.8928 51.93 26.5021 51.17 23.4485 49.82C24.3779 49.79 25.3072 49.72 26.2366 49.59C34.7337 48.41 39.4112 43.98 45.835 38.68C49.9815 35.26 54.1176 37.04 53.5559 41.55C49.1644 47.82 41.801 51.93 33.4571 51.93Z" fill="white"/>
</g>
<defs>
<clipPath id="clip0_2820_432">
<rect width="250" height="56.16" fill="white"/>
</clipPath>
</defs>
</svg>
