<svg width="250" height="57" viewBox="0 0 250 57" fill="none" xmlns="http://www.w3.org/2000/svg">
<g clip-path="url(#clip0_2134_3878)">
<mask id="mask0_2134_3878" style="mask-type:luminance" maskUnits="userSpaceOnUse" x="0" y="0" width="250" height="57">
<path d="M250 0H0V56.16H250V0Z" fill="white"/>
</mask>
<g mask="url(#mask0_2134_3878)">
<path fill-rule="evenodd" clip-rule="evenodd" d="M77.1785 37.2606V33.4006H87.279C88.8926 33.4006 89.965 33.2506 90.4858 32.9506C91.262 32.5006 91.6399 31.8206 91.6399 30.9106C91.6399 29.8506 91.1905 29.0806 90.2816 28.6106C89.7709 28.3306 88.9539 28.1906 87.8305 28.1906H83.7249C81.233 28.1906 79.4355 27.7506 78.3326 26.8606C77.6483 26.3006 77.1172 25.6006 76.7291 24.7506C76.3411 23.9106 76.147 23.0006 76.147 22.0306C76.147 20.5206 76.5964 19.1306 77.5053 17.8806C78.3836 16.6706 79.8032 15.9606 81.7436 15.7406C82.4075 15.6806 83.3879 15.6406 84.6952 15.6406H95.6535V19.5006H85.7573C84.2764 19.5206 83.296 19.5906 82.8058 19.6906C81.8151 19.9306 81.3147 20.6606 81.3147 21.9006C81.3147 22.9406 81.7334 23.6306 82.5709 23.9706C83.1224 24.2306 84.0517 24.3606 85.3488 24.3606H88.8926C90.7003 24.3606 92.0484 24.5106 92.9369 24.8106C94.4995 25.3306 95.582 26.2406 96.1846 27.5306C96.6442 28.5706 96.8791 29.6806 96.8791 30.8706C96.8791 32.1906 96.5727 33.3706 95.9497 34.4006C95.0918 35.8706 93.7948 36.7606 92.079 37.0606C91.2416 37.1906 89.9752 37.2506 88.2697 37.2506H77.1785V37.2606ZM104.304 15.6406V21.4806H108.838C110.186 21.4806 111.238 21.5806 112.004 21.7906C112.77 22.0006 113.414 22.3606 113.945 22.8806C114.956 23.7906 115.466 25.3106 115.466 27.4506V37.2706H111.034V28.2906C111.034 27.4506 110.993 26.8506 110.922 26.4906C110.84 26.1306 110.687 25.8306 110.442 25.5706C110.002 25.1206 109.165 24.8806 107.929 24.8606H104.324V37.2806H99.8919V15.6406H104.324H104.304ZM119.276 21.4806H123.708V37.2706H119.276V21.4806ZM119.276 19.8506V15.6406H123.708V19.8506H119.276ZM127.752 21.4806H135.504C137.005 21.4806 138.139 21.5706 138.915 21.7606C139.691 21.9406 140.427 22.3106 141.131 22.8506C143.051 24.3206 144.011 26.5806 144.011 29.6306C144.011 31.9406 143.307 33.8106 141.897 35.2406C141.192 35.9506 140.375 36.4706 139.466 36.8006C138.547 37.1206 137.434 37.2906 136.106 37.2906H132.195V43.0206H127.763V26.9306H132.195V33.9206H134.912C136.352 33.9206 137.393 33.6206 138.057 33.0106C138.986 32.2106 139.446 30.9806 139.446 29.3106C139.446 27.8806 139.078 26.7906 138.353 26.0206C137.628 25.2506 136.576 24.8706 135.208 24.8706H127.763V21.5006L127.752 21.4806ZM146.932 37.2606V33.4006H157.033C158.646 33.4006 159.719 33.2506 160.239 32.9506C161.016 32.5006 161.393 31.8206 161.393 30.9106C161.393 29.8506 160.944 29.0806 160.035 28.6106C159.525 28.3306 158.707 28.1906 157.584 28.1906H153.479C150.987 28.1906 149.189 27.7506 148.086 26.8606C147.402 26.3006 146.871 25.6006 146.483 24.7506C146.095 23.9106 145.901 23.0006 145.901 22.0306C145.901 20.5206 146.35 19.1306 147.259 17.8806C148.137 16.6706 149.557 15.9606 151.497 15.7406C152.161 15.6806 153.141 15.6406 154.449 15.6406H165.407V19.5006H155.511C154.03 19.5206 153.05 19.5906 152.559 19.6906C151.569 19.9306 151.068 20.6606 151.068 21.9006C151.068 22.9406 151.487 23.6306 152.324 23.9706C152.876 24.2306 153.805 24.3606 155.102 24.3606H158.646C160.454 24.3606 161.802 24.5106 162.69 24.8106C164.253 25.3306 165.336 26.2406 165.938 27.5306C166.398 28.5706 166.633 29.6806 166.633 30.8706C166.633 32.1906 166.326 33.3706 165.703 34.4006C164.845 35.8706 163.548 36.7606 161.833 37.0606C160.995 37.1906 159.729 37.2506 158.023 37.2506H146.932V37.2606ZM180.747 27.6706C180.747 27.5606 180.747 27.4606 180.747 27.3506C180.706 26.4206 180.481 25.7806 180.073 25.4306C179.623 25.0406 178.725 24.8506 177.377 24.8506H169.891V21.4806H177.377C178.725 21.4806 179.654 21.5106 180.154 21.5606C180.665 21.6106 181.186 21.7206 181.707 21.8706C184.158 22.7806 185.312 24.9506 185.179 28.3906V37.2706H175.845C174.17 37.2706 173.005 37.2206 172.372 37.1206C171.729 37.0206 171.167 36.8206 170.687 36.5206C169.38 35.6606 168.736 34.3506 168.736 32.6006C168.736 31.5406 168.992 30.6006 169.513 29.7606C170.034 28.9306 170.718 28.3606 171.586 28.0606C172.331 27.8006 173.588 27.6706 175.324 27.6706H178.806V31.0406H174.895C174.384 31.0406 173.986 31.1706 173.69 31.4306C173.394 31.6906 173.24 32.0506 173.24 32.5006C173.24 33.0006 173.424 33.3506 173.782 33.5706C174.149 33.7906 174.772 33.8906 175.651 33.8906H180.747V31.0406V27.6706ZM195.984 32.3406L200.488 21.4806H205.186L198.231 37.2706H193.462L187.038 21.4806H191.869L195.974 32.3406H195.984ZM207.239 21.4806H211.671V37.2706H207.239V21.4806ZM207.239 19.8506V15.6406H211.671V19.8506H207.239ZM215.726 21.4806H224.264C225.54 21.4806 226.521 21.5706 227.195 21.7606C227.869 21.9406 228.482 22.2706 229.033 22.7506C230.156 23.7706 230.718 25.3706 230.718 27.5506V37.2806H226.286V27.0706C226.286 26.2906 226.112 25.7306 225.755 25.3806C225.397 25.0306 224.815 24.8606 223.998 24.8606H220.158V37.2806H215.726V21.4906V21.4806ZM250 21.4806H241.717C240.502 21.4806 239.501 21.5806 238.725 21.7906C237.939 22.0006 237.193 22.3506 236.488 22.8406C234.528 24.2006 233.537 26.3706 233.537 29.3606C233.537 31.9806 234.344 34.0306 235.957 35.5206C236.642 36.1506 237.408 36.6006 238.255 36.8706C239.103 37.1406 240.185 37.2806 241.483 37.2806H245.557C245.557 38.1906 245.404 38.7906 245.108 39.0806C244.812 39.3706 244.179 39.5206 243.208 39.5206H233.935V42.8906H243.811C245.18 42.8906 246.221 42.7806 246.936 42.5506C247.651 42.3206 248.264 41.9106 248.774 41.3006C249.173 40.8206 249.479 40.2406 249.683 39.5506C249.898 38.8606 250 38.0706 250 37.1806V21.4906V21.4806ZM245.557 24.8506V33.9006H242.116C240.788 33.9006 239.777 33.5206 239.083 32.7506C238.388 31.9806 238.041 30.8606 238.041 29.3906C238.041 26.3606 239.317 24.8506 241.881 24.8506H245.557Z" fill="#1C1C1E"/>
<path fill-rule="evenodd" clip-rule="evenodd" d="M33.4573 0C20.4972 0 9.54902 8.41 5.99495 19.96C4.94303 23.42 9.15072 24.3 10.0699 21.36C13.0316 11.46 22.3764 4.22 33.4471 4.22C42.3731 4.22 50.1859 8.93 54.4242 15.95C44.8446 14.45 40.6675 10.98 36.6948 9.07C34.1313 7.84 32.5279 7.39 31.4556 8.67C30.7917 9.46 30.8734 10.48 31.0164 11.51C31.8334 17.24 26.4921 20.01 21.5287 19.34C20.0172 19.13 18.5159 18.73 17.178 18.38C16.4223 18.19 15.9321 18.13 15.9321 18.59C15.9321 19.29 16.4631 19.91 16.698 20.51C18.1074 24.06 16.9431 26.28 14.8291 27.03C11.3363 28.28 5.24942 26.02 3.85026 22.76C1.61365 17.55 0.28598 23.21 0.0919364 25.78C-0.786368 37.22 5.28005 44.79 13.3176 48.02C18.4955 53.03 25.6138 56.13 33.4675 56.13C49.2974 56.13 62.1451 43.56 62.1451 28.05C62.1451 12.54 49.2872 0 33.4573 0ZM24.7764 27.25C25.5628 27.25 26.196 27.87 26.196 28.64C26.196 29.41 25.5628 30.03 24.7764 30.03C23.99 30.03 23.3568 29.41 23.3568 28.64C23.3568 27.87 23.99 27.25 24.7764 27.25ZM33.4573 51.93C29.893 51.93 26.5023 51.17 23.4487 49.82C24.3781 49.79 25.3074 49.72 26.2368 49.59C34.7339 48.41 39.4114 43.98 45.8352 38.68C49.9817 35.26 54.1178 37.04 53.5561 41.55C49.1646 47.82 41.8012 51.93 33.4573 51.93Z" fill="#1C1C1E"/>
</g>
</g>
<defs>
<clipPath id="clip0_2134_3878">
<rect width="250" height="57" fill="white"/>
</clipPath>
</defs>
</svg>
